name C:\Users\u0101727\Documents\MyRepositories\upper-imu-dc\Results\main_tracking\Case_22\SHRUG01_angularVelocities_bodyFrame.mot
datacolumns 4
datarows 129
range 0.71000000 1.99000000
endheader 
time	radius_imu_x	radius_imu_y	radius_imu_z	
          0.71000000	         -0.05527844	          0.56346193	         -0.04907969	
          0.72000000	         -0.07745976	          0.56452230	         -0.07422946	
          0.73000000	         -0.08566170	          0.56038699	         -0.07926802	
          0.74000000	         -0.08346263	          0.53877723	         -0.07062827	
          0.75000000	         -0.07397550	          0.48947707	         -0.05331077	
          0.76000000	         -0.05975051	          0.41142030	         -0.03137501	
          0.77000000	         -0.04334557	          0.31308502	         -0.00812419	
          0.78000000	         -0.02716142	          0.21024658	          0.01371908	
          0.79000000	         -0.01307696	          0.11916190	          0.03207834	
          0.80000000	         -0.00204395	          0.05015367	          0.04557946	
          0.81000000	          0.00600561	          0.00425319	          0.05353030	
          0.82000000	          0.01190841	         -0.02487409	          0.05574244	
          0.83000000	          0.01670907	         -0.04677763	          0.05231977	
          0.84000000	          0.02117062	         -0.06921792	          0.04341972	
          0.85000000	          0.02553828	         -0.09584890	          0.02915627	
          0.86000000	          0.02959209	         -0.12632317	          0.00964891	
          0.87000000	          0.03280769	         -0.15844947	         -0.01486083	
          0.88000000	          0.03459838	         -0.19006419	         -0.04387418	
          0.89000000	          0.03451350	         -0.21991246	         -0.07651435	
          0.90000000	          0.03224769	         -0.24819287	         -0.11149336	
          0.91000000	          0.02757884	         -0.27456311	         -0.14722418	
          0.92000000	          0.02023414	         -0.29602452	         -0.18198485	
          0.93000000	          0.00979363	         -0.30618473	         -0.21413270	
          0.94000000	         -0.00418455	         -0.29613659	         -0.24230202	
          0.95000000	         -0.02197677	         -0.25761633	         -0.26548339	
          0.96000000	         -0.04349567	         -0.18612703	         -0.28305186	
          0.97000000	         -0.06820663	         -0.08283041	         -0.29472050	
          0.98000000	         -0.09526035	          0.04475089	         -0.30041043	
          0.99000000	         -0.12373457	          0.18399182	         -0.30012875	
          1.00000000	         -0.15294621	          0.31946050	         -0.29387508	
          1.01000000	         -0.18266430	          0.43595902	         -0.28166185	
          1.02000000	         -0.21315313	          0.52192169	         -0.26367277	
          1.03000000	         -0.24505127	          0.57254877	         -0.24050772	
          1.04000000	         -0.27912803	          0.59145175	         -0.21339412	
          1.05000000	         -0.31599857	          0.58948742	         -0.18423175	
          1.06000000	         -0.35586959	          0.58089890	         -0.15543202	
          1.07000000	         -0.39836554	          0.57844784	         -0.12962132	
          1.08000000	         -0.44244816	          0.58952065	         -0.10932846	
          1.09000000	         -0.48643990	          0.61424696	         -0.09674210	
          1.10000000	         -0.52814917	          0.64568959	         -0.09356704	
          1.11000000	         -0.56511880	          0.67175120	         -0.10096547	
          1.12000000	         -0.59495232	          0.67824540	         -0.11955646	
          1.13000000	         -0.61565369	          0.65225976	         -0.14942686	
          1.14000000	         -0.62591946	          0.58506718	         -0.19012423	
          1.15000000	         -0.62538183	          0.47419716	         -0.24061716	
          1.16000000	         -0.61483542	          0.32386089	         -0.29919404	
          1.17000000	         -0.59641229	          0.14275092	         -0.36328062	
          1.18000000	         -0.57365304	         -0.06032823	         -0.42922582	
          1.19000000	         -0.55141628	         -0.28085968	         -0.49218916	
          1.20000000	         -0.53545707	         -0.52040577	         -0.54632231	
          1.21000000	         -0.53140936	         -0.78425812	         -0.58543688	
          1.22000000	         -0.54308399	         -1.07271730	         -0.60434345	
          1.23000000	         -0.56760216	         -1.36251787	         -0.60140563	
          1.24000000	         -0.59495504	         -1.58003300	         -0.57991626	
          1.25000000	         -0.56901125	         -1.52299754	         -0.55927332	
          1.26000000	         -0.51036091	         -1.26873117	         -0.55881313	
          1.27000000	         -0.50521479	         -1.13018157	         -0.49580118	
          1.28000000	         -0.48271476	         -0.88340444	         -0.41527743	
          1.29000000	         -0.39792508	         -0.40393338	         -0.39429395	
          1.30000000	         -0.31405688	         -0.00249961	         -0.33069075	
          1.31000000	         -0.26262870	          0.16163904	         -0.23090564	
          1.32000000	         -0.26548718	          0.04324986	         -0.12139262	
          1.33000000	         -0.30895615	         -0.24081648	         -0.01148413	
          1.34000000	         -0.31970816	         -0.23024320	          0.11283749	
          1.35000000	         -0.26117506	          0.04294689	          0.18162455	
          1.36000000	         -0.25674572	          0.43484342	          0.32588744	
          1.37000000	         -0.17865815	          1.16636040	          0.41403802	
          1.38000000	         -0.14469847	          1.81605568	          0.51508293	
          1.39000000	         -0.17468151	          2.21311809	          0.61186054	
          1.40000000	         -0.23966950	          2.42347427	          0.69343284	
          1.41000000	         -0.31580960	          2.51944936	          0.75213519	
          1.42000000	         -0.38617064	          2.54915892	          0.78423396	
          1.43000000	         -0.44090234	          2.53468839	          0.78991366	
          1.44000000	         -0.47549370	          2.48294907	          0.77186020	
          1.45000000	         -0.48909167	          2.39516155	          0.73375958	
          1.46000000	         -0.48313408	          2.27237618	          0.67962269	
          1.47000000	         -0.46040502	          2.11776264	          0.61351149	
          1.48000000	         -0.42443923	          1.93695389	          0.53938475	
          1.49000000	         -0.37926398	          1.73620523	          0.46103651	
          1.50000000	         -0.32909249	          1.51978252	          0.38180676	
          1.51000000	         -0.27819623	          1.28626335	          0.30413865	
          1.52000000	         -0.22893235	          1.03454417	          0.22854378	
          1.53000000	         -0.18275485	          0.77451202	          0.15907067	
          1.54000000	         -0.13993833	          0.51639269	          0.09754095	
          1.55000000	         -0.09934604	          0.26472437	          0.04123105	
          1.56000000	         -0.06108905	          0.03596769	         -0.00283698	
          1.57000000	         -0.02432133	         -0.17136165	         -0.04058338	
          1.58000000	          0.01064655	         -0.35525010	         -0.07745006	
          1.59000000	          0.04083126	         -0.49690258	         -0.10539016	
          1.60000000	          0.06596708	         -0.58398317	         -0.12437702	
          1.61000000	          0.08478976	         -0.61770086	         -0.13540075	
          1.62000000	          0.09681848	         -0.60575741	         -0.13999008	
          1.63000000	          0.10261626	         -0.56084573	         -0.13978750	
          1.64000000	          0.10355197	         -0.49882803	         -0.13592737	
          1.65000000	          0.10260403	         -0.42924827	         -0.12909686	
          1.66000000	          0.09728133	         -0.37642012	         -0.11195060	
          1.67000000	          0.09288011	         -0.34730207	         -0.09568973	
          1.68000000	          0.09202504	         -0.33654810	         -0.07894413	
          1.69000000	          0.09801591	         -0.33576253	         -0.05950410	
          1.70000000	          0.11401729	         -0.35100252	         -0.05091206	
          1.71000000	          0.13820337	         -0.38064747	         -0.05229127	
          1.72000000	          0.16821503	         -0.42005987	         -0.05942971	
          1.73000000	          0.20278409	         -0.46862081	         -0.07229631	
          1.74000000	          0.24122952	         -0.52929953	         -0.09264289	
          1.75000000	          0.28306815	         -0.60789051	         -0.12154701	
          1.76000000	          0.32850380	         -0.71160575	         -0.15949160	
          1.77000000	          0.37832646	         -0.84912224	         -0.20654077	
          1.78000000	          0.43367345	         -1.02918847	         -0.26249159	
          1.79000000	          0.49563700	         -1.25778981	         -0.32684317	
          1.80000000	          0.56490201	         -1.53368372	         -0.39860621	
          1.81000000	          0.64127279	         -1.84523541	         -0.47563086	
          1.82000000	          0.72405105	         -2.16598043	         -0.55417298	
          1.83000000	          0.80644877	         -2.47543050	         -0.62566503	
          1.84000000	          0.87581693	         -2.80035711	         -0.69071805	
          1.85000000	          0.92960445	         -3.13510711	         -0.75816112	
          1.86000000	          0.97536817	         -3.38383731	         -0.83095552	
          1.87000000	          1.01607225	         -3.49735634	         -0.89426819	
          1.88000000	          1.04974297	         -3.47589657	         -0.94247789	
          1.89000000	          1.05719760	         -3.42468885	         -0.97871921	
          1.90000000	          1.05211046	         -3.39298481	         -0.99862515	
          1.91000000	          1.04013707	         -3.35357033	         -1.02055063	
          1.92000000	          1.02822305	         -3.32751202	         -1.03393074	
          1.93000000	          1.01729075	         -3.33225600	         -1.03921629	
          1.94000000	          1.00631613	         -3.38399019	         -1.03733496	
          1.95000000	          0.99438009	         -3.48119062	         -1.03007409	
          1.96000000	          0.98120866	         -3.60828178	         -1.01942955	
          1.97000000	          0.96802795	         -3.73673272	         -1.00722302	
          1.98000000	          0.95801916	         -3.82746852	         -0.99437005	
          1.99000000	          0.95630545	         -3.83499940	         -0.97996426	
